# xmcd CD database file
#
# Track frame offsets:
#	150
#	23429
#	47289
#	68673
#	90666
#	123086
#	141774
#	162758
#	195438
#	218291
#	235156
#
# Disc length: 3584 seconds
#
# Revision: 0
# Processed by: cddbd v1.5.2PL0 Copyright (c) Steve Scherf et al.
# Submitted via: CDex 1.51
#
DISCID=780dfe0b
DTITLE=Will Scruggs - C. C. Booker III
DYEAR=2009
DGENRE=Jazz
TTITLE0=Leave My Woman Alone [ Ray Charles]
TTITLE1=Jealous Kind [Robert C. Guldry]
TTITLE2=Tell The Truth [Lowman Pauling]
TTITLE3=Shoppin For Clothes [Leiber-Stoller-Harris]
TTITLE4=Compared To What [Gene McDaniels]
TTITLE5=Booker's Notion [Jackson-Cropper-Dunn-Jones]
TTITLE6=One Mint Julep [Rudolph Toombs]
TTITLE7=Hip Hug Her  [Jackson-Cropper-Dunn-Jones]
TTITLE8=Soul Twist [Curtis Ousley]
TTITLE9=Birth Of The Blues [Henderson-DeSylva-Brown]
TTITLE10=TOLA [Will Scruggs]
EXTD=YEAR: 2009
EXTT0=
EXTT1=
EXTT2=
EXTT3=
EXTT4=
EXTT5=
EXTT6=
EXTT7=
EXTT8=
EXTT9=
EXTT10=
PLAYORDER=
